<svg width="32" height="32" viewBox="0 0 32 32" fill="none" xmlns="http://www.w3.org/2000/svg">
<circle cx="16" cy="16" r="15.5" stroke="black"/>
<path d="M12.3418 11.0469H15.6367C16.3841 11.0469 17.0153 11.1608 17.5303 11.3887C18.0498 11.6165 18.444 11.9538 18.7129 12.4004C18.9863 12.8424 19.123 13.387 19.123 14.0342C19.123 14.4899 19.0296 14.9069 18.8428 15.2852C18.6605 15.6589 18.3962 15.9779 18.0498 16.2422C17.708 16.502 17.2979 16.6956 16.8193 16.8232L16.4502 16.9668H13.3535L13.3398 15.8936H15.6777C16.1517 15.8936 16.5459 15.8115 16.8604 15.6475C17.1748 15.4788 17.4118 15.2533 17.5713 14.9707C17.7308 14.6882 17.8105 14.376 17.8105 14.0342C17.8105 13.6514 17.7354 13.3164 17.585 13.0293C17.4346 12.7422 17.1976 12.5212 16.874 12.3662C16.555 12.2067 16.1426 12.127 15.6367 12.127H13.6611V21H12.3418V11.0469ZM18.1592 21L15.7393 16.4883L17.1133 16.4814L19.5674 20.918V21H18.1592Z" fill="black"/>
</svg>
