<svg width="32" height="32" viewBox="0 0 32 32" fill="none" xmlns="http://www.w3.org/2000/svg">
<circle cx="16" cy="16" r="16" fill="black"/>
<path d="M15.9102 17.0967H13.251V16.0234H15.9102C16.4251 16.0234 16.8421 15.9414 17.1611 15.7773C17.4801 15.6133 17.7126 15.3854 17.8584 15.0938C18.0088 14.8021 18.084 14.4694 18.084 14.0957C18.084 13.7539 18.0088 13.4326 17.8584 13.1318C17.7126 12.8311 17.4801 12.5895 17.1611 12.4072C16.8421 12.2204 16.4251 12.127 15.9102 12.127H13.5586V21H12.2393V11.0469H15.9102C16.6621 11.0469 17.2979 11.1768 17.8174 11.4365C18.3369 11.6963 18.7311 12.0563 19 12.5166C19.2689 12.9723 19.4033 13.4941 19.4033 14.082C19.4033 14.7201 19.2689 15.2646 19 15.7158C18.7311 16.167 18.3369 16.5111 17.8174 16.748C17.2979 16.9805 16.6621 17.0967 15.9102 17.0967Z" fill="white"/>
</svg>
